<?xml version="1.0" encoding="utf-8"?>
<!-- Generator: Adobe Illustrator 28.2.0, SVG Export Plug-In . SVG Version: 6.00 Build 0)  -->
<svg version="1.1"
	 id="svg22" xmlns:svg="http://www.w3.org/2000/svg" xmlns:inkscape="http://www.inkscape.org/namespaces/inkscape" xmlns:sodipodi="http://sodipodi.sourceforge.net/DTD/sodipodi-0.dtd" inkscape:export-filename="AGS_vector_v5_100x300.png"
	 xmlns="http://www.w3.org/2000/svg" xmlns:xlink="http://www.w3.org/1999/xlink" x="0px" y="0px" viewBox="0 0 950 407.1"
	 style="enable-background:new 0 0 950 407.1;" xml:space="preserve">
<style type="text/css">
	.st0{fill:#0F2649;}
	.st1{fill:#09C2E9;}
	.st2{font-family:'YuGothicUI-Semilight';}
	.st3{font-size:256px;}
	.st4{font-size:64px;}
	.st5{font-size:72px;}
</style>
<sodipodi:namedview  bordercolor="#000000" borderopacity="0.25" id="namedview22" inkscape:current-layer="svg22" inkscape:cx="382.194" inkscape:cy="113.98768" inkscape:deskcolor="#d1d1d1" inkscape:export-bgcolor="#ffffffff" inkscape:pagecheckerboard="0" inkscape:pageopacity="0.0" inkscape:showpageshadow="2" inkscape:window-height="1009" inkscape:window-maximized="1" inkscape:window-width="1920" inkscape:window-x="-8" inkscape:window-y="-8" inkscape:zoom="0.96940298" pagecolor="#ffffff">
	</sodipodi:namedview>
<path id="path4" class="st0" d="M284.3,196.7c-0.7-0.9-1.8-3.1-3.2-6.8c-8.9-22.8-26.3-43.4-47.5-56.2c-24.8-15-52-20.1-81.8-15.3
	c-3.9,0.6-8.5,1.8-13.9,3.4c-2.2,0.7-4.7,1.2-7.5,1.5c-7.7,1-14.3,4.3-19.9,10.1c-1.4,1.5-3.1,2.9-5.1,4.3c-3.1,2.2-6.1,4.5-9,7.1
	c-29.2,7.1-53.3,22.2-72.3,45.5c-0.2,0.2-0.5,0.3-0.7,0.1c-0.1-0.1-0.1-0.1-0.2-0.2c-9.7-25-16.5-50.6-20.4-76.7
	c-0.1-0.7,0.1-1.2,0.7-1.5C22.7,99.4,43,89.2,64.5,81.3c23.9-8.8,48.3-13.9,73-15.3c3.5-0.2,9.7-0.3,18.6-0.2
	c7.7,0.1,13.9,0.3,18.5,0.8c28.3,2.7,55.8,10.1,82.6,22c14.8,6.6,29.2,14.4,43.2,23.5c0.4,0.2,0.5,0.6,0.5,1.1
	c-1.9,11.9-4.2,23.3-6.8,34c-0.1,0.4,0.1,0.6,0.5,0.6c8.3-0.4,21.2,0,26.9,7.1c2.8,3.5,3.3,7.8,1.3,12.7
	c-2.6,6.4-8.8,12.1-14.4,16.1C300.9,188.8,292.9,193.2,284.3,196.7L284.3,196.7z M292.6,152.7c-3.1,11.4-6.6,22.6-10.8,33.6
	c0,0.1,0,0.2,0.1,0.2c0,0,0.1,0,0.1,0c7.8-3.2,14.7-7.4,20.7-12.7c6.3-5.5,10.3-14.8,0.1-19.3c-3.2-1.4-6.5-2.1-9.9-2.1
	C292.7,152.5,292.6,152.5,292.6,152.7L292.6,152.7z"/>
<path id="path6" class="st1" d="M284.3,196.7c-22.3,10-45.9,15.2-70.8,15.6c-0.3,0-0.6-0.1-0.8-0.4c-10.1-15-28-20.4-44.5-12.2
	c-15.7,7.8-22.5,26.8-16,42.8c4.5,11,13.9,18.7,25.7,20.8c9.4,1.7,18.2-0.4,26.6-6.4c1-0.7,2.9-2.5,5.6-5.3c0.2-0.2,0.5-0.3,0.9-0.3
	c13.3,1,26.3,0.1,38.9-2.7c0.7-0.1,0.8,0.1,0.4,0.6c-14.9,22.9-32.3,44-52.3,63.4c-14.2,13.8-29.5,26.7-45.8,38.8
	c-0.1,0.1-0.2,0.1-0.3,0c-32.7-23.8-60.9-51.3-84.7-82.6c-0.2-0.3-0.6-0.4-0.9-0.3c-8.3,2.5-16.2,4.2-23.7,5
	c-9.3,1-23.1-0.4-22.7-13.1c0.1-3.8,0.7-6.9,1.7-9.4c4-9.6,9.6-18.8,16.6-27.5c2.7-3.3,5.5-6.3,8.7-9c18-15.5,41-26.4,64-32.8
	c0.3-0.1,0.6,0,0.9,0.2c2.9,2.5,5.2,4.2,6.9,5.1c11.3,5.9,22.3,5.9,33.2,0.1c6.6-3.5,12.4-10.1,15.2-17.4c5.1-13.5,1.6-27.8-9-37.6
	c-11.1-10.3-27.3-11.3-40.2-3.8c-5.6,3.3-10.1,8.1-13.3,14.4c-0.2,0.3-0.4,0.5-0.7,0.6l-7.4,1.6c2.9-2.6,5.9-5,9-7.1
	c2-1.4,3.7-2.8,5.1-4.3c5.5-5.8,12.1-9.1,19.9-10.1c2.8-0.3,5.3-0.9,7.5-1.5c5.4-1.7,10-2.8,13.9-3.4c29.8-4.8,57,0.3,81.8,15.3
	c21.2,12.9,38.5,33.4,47.5,56.2C282.5,193.6,283.5,195.8,284.3,196.7L284.3,196.7z M36.8,260.2c4.7,7.3,18.8,5.1,25.8,3.4
	c0.3-0.1,0.4-0.2,0.2-0.5c-4.8-7.1-7.9-11.7-9.2-13.7c-1.3-2-4.2-6.7-8.7-14c-0.2-0.3-0.3-0.3-0.5,0C39.9,241,32.1,252.9,36.8,260.2
	L36.8,260.2z"/>
<circle id="circle6" class="st0" cx="135.3" cy="157.3" r="19.6"/>
<circle id="circle7" class="st0" cx="183.7" cy="229.8" r="19.6"/>
<text transform="matrix(1 0 0 1 329.7126 281.2589)" class="st2 st3">AGS</text>
<text transform="matrix(1 0 0 1 323.9003 337.5714)" class="st2 st4">Manage and Protect</text>
<text transform="matrix(1 0 0 1 893.8516 337.5714)" class="st1 st2 st5">IT</text>
</svg>
